<svg viewBox="0 0 1180 800" xmlns="http://www.w3.org/2000/svg">
<rect width="1180" height="800" fill="white"/>
<text x="30" y="54" font-size="38" fill="#2A1E00" font-style="italic" font-family="Georgia,serif" font-weight="bold">Utilitarians</text>
<line x1="30" y1="68" x2="234" y2="68" stroke="#2A1E00" stroke-width="2.5"/>
<text font-size="9.5" fill="#555" font-style="italic" font-family="Calibri,Arial,sans-serif"><tspan x="30" y="84">Utilitarian oncologists are very similar to their By the Book colleagues in their caution, although this largely comes</tspan><tspan x="30" dy="13.5">from their sensitivity to cost, both with the patient and their site. They use comprehensive genomic profiling as</tspan><tspan x="30" dy="13.5">necessary and agree that the treatment options that results from it are often actionable because they are off label. These</tspan><tspan x="30" dy="13.5">oncologists are less likely to see off label therapies as actionable because they find that the NCCN guidelines are nine</tspan><tspan x="30" dy="13.5">times out of ten the best approach, but also they are naïve because as they tend to be more generalists in the cancer</tspan><tspan x="30" dy="13.5">cases they see, they aren’t thoroughly aware of the risks and benefits to their patients.</tspan></text>
<line x1="52" y1="162" x2="52" y2="358" stroke="#AAAAAA" stroke-width="1.2"/><line x1="52" y1="162" x2="57" y2="162" stroke="#AAAAAA" stroke-width="1.2"/><line x1="52" y1="358" x2="57" y2="358" stroke="#AAAAAA" stroke-width="1.2"/>
<line x1="52" y1="396" x2="52" y2="542" stroke="#AAAAAA" stroke-width="1.2"/><line x1="52" y1="396" x2="57" y2="396" stroke="#AAAAAA" stroke-width="1.2"/><line x1="52" y1="542" x2="57" y2="542" stroke="#AAAAAA" stroke-width="1.2"/>
<line x1="52" y1="580" x2="52" y2="694" stroke="#AAAAAA" stroke-width="1.2"/><line x1="52" y1="580" x2="57" y2="580" stroke="#AAAAAA" stroke-width="1.2"/><line x1="52" y1="694" x2="57" y2="694" stroke="#AAAAAA" stroke-width="1.2"/>
<text x="38" y="260" font-size="9.5" fill="#AAAAAA" text-anchor="middle" font-family="Calibri,Arial,sans-serif" transform="rotate(-90 38 260)">Awareness</text>
<text x="38" y="469" font-size="9.5" fill="#AAAAAA" text-anchor="middle" font-family="Calibri,Arial,sans-serif" transform="rotate(-90 38 469)">Patient Constraints</text>
<text x="38" y="637" font-size="9.5" fill="#AAAAAA" text-anchor="middle" font-family="Calibri,Arial,sans-serif" transform="rotate(-90 38 637)">Site Constraints</text>
<rect x="58" y="392" width="556" height="154" rx="3" fill="#E8B840" fill-opacity="0.15" stroke="#E8B840" stroke-width="1.2"/>
<rect x="610" y="392" width="550" height="154" rx="3" fill="#E8B840"/><text x="622" y="408" font-size="10.5" font-weight="bold" fill="#2A1800" font-family="Calibri,Arial,sans-serif">KEY DIFFERENTIATORS</text><text x="622" y="424.0" font-size="9.8" fill="#2A1800" font-family="Calibri,Arial,sans-serif">Utilitarians are very wary of the cost for their patients, not only of running the test, but</text><text x="622" y="438.0" font-size="9.8" fill="#2A1800" font-family="Calibri,Arial,sans-serif">the cost of treatment. Both fiscally for the patient and the site and also physically for the</text><text x="622" y="452.0" font-size="9.8" fill="#2A1800" font-family="Calibri,Arial,sans-serif">patient. They are wary of the danger to themselves and the hospital being sued on the grounds</text><text x="622" y="466.0" font-size="9.8" fill="#2A1800" font-family="Calibri,Arial,sans-serif">of a patient reacting negatively to a treatment and not being educated of all the risks. They</text><text x="622" y="480.0" font-size="9.8" fill="#2A1800" font-family="Calibri,Arial,sans-serif">find that the costs associated with comprehensive testing, as interesting as the results may</text><text x="622" y="494.0" font-size="9.8" fill="#2A1800" font-family="Calibri,Arial,sans-serif">be, more often out weigh the benefits.</text>
<text font-size="11" fill="#444" font-family="Calibri,Arial,sans-serif"><tspan x="62" y="189.8">Variety of cancer</tspan><tspan x="62" dy="15.2">type in patient cases</tspan></text>
<text x="248" y="198" font-size="10" fill="#666" text-anchor="end" font-family="Calibri,Arial,sans-serif">Wide</text><text x="492" y="198" font-size="10" fill="#666" font-family="Calibri,Arial,sans-serif">Limited</text>
<rect x="252" y="191" width="235" height="6" rx="3" fill="#CCCCCC"/><circle cx="273.1" cy="194" r="4.2" fill="#C49020"/><circle cx="303.7" cy="194" r="4.2" fill="#C49020"/><circle cx="334.2" cy="194" r="4.2" fill="#C49020"/><circle cx="364.8" cy="194" r="4.2" fill="#C49020"/><circle cx="393.0" cy="194" r="4.2" fill="#C49020"/><circle cx="423.5" cy="194" r="4.2" fill="#C49020"/>
<text font-size="11" fill="#444" font-family="Calibri,Arial,sans-serif"><tspan x="62" y="258.8">Involvement in cancer</tspan><tspan x="62" dy="15.2">research</tspan></text>
<text x="248" y="267" font-size="10" fill="#666" text-anchor="end" font-family="Calibri,Arial,sans-serif">Light</text><text x="492" y="267" font-size="10" fill="#666" font-family="Calibri,Arial,sans-serif">Heavy</text>
<rect x="252" y="260" width="235" height="6" rx="3" fill="#CCCCCC"/><circle cx="303.7" cy="263" r="7.5" fill="#C49020"/>
<text font-size="11" fill="#444" font-family="Calibri,Arial,sans-serif"><tspan x="62" y="324.8">Engagement in</tspan><tspan x="62" dy="15.2">oncology community</tspan></text>
<text x="248" y="333" font-size="10" fill="#666" text-anchor="end" font-family="Calibri,Arial,sans-serif">Low</text><text x="492" y="333" font-size="10" fill="#666" font-family="Calibri,Arial,sans-serif">High</text>
<rect x="252" y="326" width="235" height="6" rx="3" fill="#CCCCCC"/><circle cx="303.7" cy="329" r="7.5" fill="#C49020"/>
<text font-size="11" fill="#444" font-family="Calibri,Arial,sans-serif"><tspan x="62" y="426.4">Cost sensitivity</tspan></text>
<text x="248" y="427" font-size="10" fill="#666" text-anchor="end" font-family="Calibri,Arial,sans-serif">Low</text><text x="492" y="427" font-size="10" fill="#666" font-family="Calibri,Arial,sans-serif">High</text>
<rect x="252" y="420" width="235" height="6" rx="3" fill="#CCCCCC"/><circle cx="435.3" cy="423" r="7.5" fill="#C49020"/>
<text font-size="11" fill="#444" font-family="Calibri,Arial,sans-serif"><tspan x="62" y="488.2">Perceived risk of off</tspan><tspan x="62" dy="15.2">label treatment to</tspan><tspan x="62" dy="15.2">patients</tspan></text>
<text x="248" y="504" font-size="10" fill="#666" text-anchor="end" font-family="Calibri,Arial,sans-serif">Low</text><text x="492" y="504" font-size="10" fill="#666" font-family="Calibri,Arial,sans-serif">High</text>
<rect x="252" y="497" width="235" height="6" rx="3" fill="#CCCCCC"/><circle cx="357.8" cy="500" r="7.5" fill="#C49020"/>
<text font-size="11" fill="#444" font-family="Calibri,Arial,sans-serif"><tspan x="62" y="609.4">Cost sensitivity</tspan></text>
<text x="248" y="610" font-size="10" fill="#666" text-anchor="end" font-family="Calibri,Arial,sans-serif">Low</text><text x="492" y="610" font-size="10" fill="#666" font-family="Calibri,Arial,sans-serif">High</text>
<rect x="252" y="603" width="235" height="6" rx="3" fill="#CCCCCC"/><circle cx="350.7" cy="606" r="7.5" fill="#C49020"/>
<text font-size="11" fill="#444" font-family="Calibri,Arial,sans-serif"><tspan x="62" y="670.4">Choice in vendor</tspan></text>
<text x="248" y="671" font-size="10" fill="#666" text-anchor="end" font-family="Calibri,Arial,sans-serif">Restricted</text><text x="492" y="671" font-size="10" fill="#666" font-family="Calibri,Arial,sans-serif">Full autonomy</text>
<rect x="252" y="664" width="235" height="6" rx="3" fill="#CCCCCC"/><circle cx="374.2" cy="667" r="7.5" fill="#C49020"/>
</svg>